HIERARCHY
ROOT Hips
{
  OFFSET 0.000000 95.000000 0.000000
  CHANNELS 6 Xposition Yposition Zposition Zrotation Xrotation Yrotation
  JOINT Spine
  {
    OFFSET 0.000000 10.000000 0.000000
    CHANNELS 3 Zrotation Xrotation Yrotation
    JOINT Spine1
    {
      OFFSET 0.000000 12.000000 0.000000
      CHANNELS 3 Zrotation Xrotation Yrotation
      JOINT Spine2
      {
        OFFSET 0.000000 12.000000 0.000000
        CHANNELS 3 Zrotation Xrotation Yrotation
        JOINT Neck
        {
          OFFSET 0.000000 10.000000 0.000000
          CHANNELS 3 Zrotation Xrotation Yrotation
          JOINT Head
          {
            OFFSET 0.000000 8.000000 0.000000
            CHANNELS 3 Zrotation Xrotation Yrotation
            End Site
            {
              OFFSET 0.000000 10.000000 0.000000
            }
          }
        }
        JOINT LeftShoulder
        {
          OFFSET 6.000000 8.000000 0.000000
          CHANNELS 3 Zrotation Xrotation Yrotation
          JOINT LeftArm
          {
            OFFSET 12.000000 0.000000 0.000000
            CHANNELS 3 Zrotation Xrotation Yrotation
            JOINT LeftForeArm
            {
              OFFSET 24.000000 0.000000 0.000000
              CHANNELS 3 Zrotation Xrotation Yrotation
              JOINT LeftHand
              {
                OFFSET 22.000000 0.000000 0.000000
                CHANNELS 3 Zrotation Xrotation Yrotation
                JOINT LeftHandThumb1
                {
                  OFFSET 1.800000 -1.400000 0.500000
                  CHANNELS 3 Zrotation Xrotation Yrotation
                  JOINT LeftHandThumb2
                  {
                    OFFSET 2.400000 0.000000 0.000000
                    CHANNELS 3 Zrotation Xrotation Yrotation
                    JOINT LeftHandThumb3
                    {
                      OFFSET 1.900000 0.000000 0.000000
                      CHANNELS 3 Zrotation Xrotation Yrotation
                      End Site
                      {
                        OFFSET 1.600000 0.000000 0.000000
                      }
                    }
                  }
                }
                JOINT LeftHandIndex1
                {
                  OFFSET 6.600000 1.200000 0.300000
                  CHANNELS 3 Zrotation Xrotation Yrotation
                  JOINT LeftHandIndex2
                  {
                    OFFSET 2.000000 0.000000 0.000000
                    CHANNELS 3 Zrotation Xrotation Yrotation
                    JOINT LeftHandIndex3
                    {
                      OFFSET 1.200000 0.000000 0.000000
                      CHANNELS 3 Zrotation Xrotation Yrotation
                      End Site
                      {
                        OFFSET 1.000000 0.000000 0.000000
                      }
                    }
                  }
                }
                JOINT LeftHandMiddle1
                {
                  OFFSET 7.200000 0.000000 0.300000
                  CHANNELS 3 Zrotation Xrotation Yrotation
                  JOINT LeftHandMiddle2
                  {
                    OFFSET 3.000000 0.000000 0.000000
                    CHANNELS 3 Zrotation Xrotation Yrotation
                    JOINT LeftHandMiddle3
                    {
                      OFFSET 2.000000 0.000000 0.000000
                      CHANNELS 3 Zrotation Xrotation Yrotation
                      End Site
                      {
                        OFFSET 1.600000 0.000000 0.000000
                      }
                    }
                  }
                }
                JOINT LeftHandRing1
                {
                  OFFSET 7.100000 -1.000000 0.400000
                  CHANNELS 3 Zrotation Xrotation Yrotation
                  JOINT LeftHandRing2
                  {
                    OFFSET 2.600000 0.000000 0.000000
                    CHANNELS 3 Zrotation Xrotation Yrotation
                    JOINT LeftHandRing3
                    {
                      OFFSET 1.600000 0.000000 0.000000
                      CHANNELS 3 Zrotation Xrotation Yrotation
                      End Site
                      {
                        OFFSET 1.300000 0.000000 0.000000
                      }
                    }
                  }
                }
                JOINT LeftHandPinky1
                {
                  OFFSET 6.500000 -2.000000 0.500000
                  CHANNELS 3 Zrotation Xrotation Yrotation
                  JOINT LeftHandPinky2
                  {
                    OFFSET 1.900000 0.000000 0.000000
                    CHANNELS 3 Zrotation Xrotation Yrotation
                    JOINT LeftHandPinky3
                    {
                      OFFSET 1.400000 0.000000 0.000000
                      CHANNELS 3 Zrotation Xrotation Yrotation
                      End Site
                      {
                        OFFSET 1.300000 0.000000 0.000000
                      }
                    }
                  }
                }
              }
            }
          }
        }
        JOINT RightShoulder
        {
          OFFSET -6.000000 8.000000 0.000000
          CHANNELS 3 Zrotation Xrotation Yrotation
          JOINT RightArm
          {
            OFFSET -12.000000 0.000000 0.000000
            CHANNELS 3 Zrotation Xrotation Yrotation
            JOINT RightForeArm
            {
              OFFSET -24.000000 0.000000 0.000000
              CHANNELS 3 Zrotation Xrotation Yrotation
              JOINT RightHand
              {
                OFFSET -22.000000 0.000000 0.000000
                CHANNELS 3 Zrotation Xrotation Yrotation
                JOINT RightHandThumb1
                {
                  OFFSET -1.800000 -1.400000 0.500000
                  CHANNELS 3 Zrotation Xrotation Yrotation
                  JOINT RightHandThumb2
                  {
                    OFFSET -2.400000 0.000000 0.000000
                    CHANNELS 3 Zrotation Xrotation Yrotation
                    JOINT RightHandThumb3
                    {
                      OFFSET -1.900000 0.000000 0.000000
                      CHANNELS 3 Zrotation Xrotation Yrotation
                      End Site
                      {
                        OFFSET -1.600000 0.000000 0.000000
                      }
                    }
                  }
                }
                JOINT RightHandIndex1
                {
                  OFFSET -6.600000 1.200000 0.300000
                  CHANNELS 3 Zrotation Xrotation Yrotation
                  JOINT RightHandIndex2
                  {
                    OFFSET -2.000000 0.000000 0.000000
                    CHANNELS 3 Zrotation Xrotation Yrotation
                    JOINT RightHandIndex3
                    {
                      OFFSET -1.200000 0.000000 0.000000
                      CHANNELS 3 Zrotation Xrotation Yrotation
                      End Site
                      {
                        OFFSET -1.000000 0.000000 0.000000
                      }
                    }
                  }
                }
                JOINT RightHandMiddle1
                {
                  OFFSET -7.200000 0.000000 0.300000
                  CHANNELS 3 Zrotation Xrotation Yrotation
                  JOINT RightHandMiddle2
                  {
                    OFFSET -3.000000 0.000000 0.000000
                    CHANNELS 3 Zrotation Xrotation Yrotation
                    JOINT RightHandMiddle3
                    {
                      OFFSET -2.000000 0.000000 0.000000
                      CHANNELS 3 Zrotation Xrotation Yrotation
                      End Site
                      {
                        OFFSET -1.600000 0.000000 0.000000
                      }
                    }
                  }
                }
                JOINT RightHandRing1
                {
                  OFFSET -7.100000 -1.000000 0.400000
                  CHANNELS 3 Zrotation Xrotation Yrotation
                  JOINT RightHandRing2
                  {
                    OFFSET -2.600000 0.000000 0.000000
                    CHANNELS 3 Zrotation Xrotation Yrotation
                    JOINT RightHandRing3
                    {
                      OFFSET -1.600000 0.000000 0.000000
                      CHANNELS 3 Zrotation Xrotation Yrotation
                      End Site
                      {
                        OFFSET -1.300000 0.000000 0.000000
                      }
                    }
                  }
                }
                JOINT RightHandPinky1
                {
                  OFFSET -6.500000 -2.000000 0.500000
                  CHANNELS 3 Zrotation Xrotation Yrotation
                  JOINT RightHandPinky2
                  {
                    OFFSET -1.900000 0.000000 0.000000
                    CHANNELS 3 Zrotation Xrotation Yrotation
                    JOINT RightHandPinky3
                    {
                      OFFSET -1.400000 0.000000 0.000000
                      CHANNELS 3 Zrotation Xrotation Yrotation
                      End Site
                      {
                        OFFSET -1.300000 0.000000 0.000000
                      }
                    }
                  }
                }
              }
            }
          }
        }
      }
    }
  }
  JOINT LeftUpLeg
  {
    OFFSET 10.000000 -5.000000 0.000000
    CHANNELS 3 Zrotation Xrotation Yrotation
    JOINT LeftLeg
    {
      OFFSET 0.000000 -42.000000 0.000000
      CHANNELS 3 Zrotation Xrotation Yrotation
      JOINT LeftFoot
      {
        OFFSET 0.000000 -42.000000 4.000000
        CHANNELS 3 Zrotation Xrotation Yrotation
        End Site
        {
          OFFSET 0.000000 0.000000 12.000000
        }
      }
    }
  }
  JOINT RightUpLeg
  {
    OFFSET -10.000000 -5.000000 0.000000
    CHANNELS 3 Zrotation Xrotation Yrotation
    JOINT RightLeg
    {
      OFFSET 0.000000 -42.000000 0.000000
      CHANNELS 3 Zrotation Xrotation Yrotation
      JOINT RightFoot
      {
        OFFSET 0.000000 -42.000000 4.000000
        CHANNELS 3 Zrotation Xrotation Yrotation
        End Site
        {
          OFFSET 0.000000 0.000000 12.000000
        }
      }
    }
  }
}
MOTION
Frames: 7
Frame Time: 0.033333
0.0000 95.0000 0.0000 0.0000 0.0000 0.0000 0.0000 0.0000 0.0000 0.0000 0.0000 0.0000 0.0000 0.0000 0.0000 0.0000 0.0000 0.0000 0.0000 0.0000 0.0000 0.0000 0.0000 0.0000 -75.6903 0.3565 0.4588 -30.1479 7.2675 -16.8368 -9.5553 37.0211 -6.5019 49.7713 -6.3208 20.3998 9.4751 0.0000 0.0000 13.4540 0.0000 0.0000 -5.4521 -0.8735 8.3766 6.5095 0.0000 0.0000 19.9868 0.0000 0.0000 3.3440 -0.0952 -1.5103 148.0727 0.0000 0.0000 19.7086 0.0000 0.0000 15.1052 -0.8643 -3.1252 150.3404 0.0000 0.0000 16.5047 0.0000 0.0000 28.0843 -2.0333 0.2611 139.7384 0.0000 0.0000 24.7503 0.0000 0.0000 0.0000 0.0000 0.0000 89.7489 -21.9672 22.0614 -143.7506 46.7647 -54.5442 -103.0071 -41.2603 94.8434 -62.9793 -12.1445 -11.0232 3.5717 0.0000 0.0000 20.4055 0.0000 0.0000 -5.8452 -5.5730 -22.0957 22.5939 0.0000 0.0000 12.4431 0.0000 0.0000 0.4477 0.0130 1.4550 5.2462 0.0000 0.0000 3.6898 0.0000 0.0000 -8.6790 -0.6258 2.2054 1.5694 0.0000 0.0000 4.7174 0.0000 0.0000 -21.6773 -2.1111 4.7709 7.9405 0.0000 0.0000 1.9780 0.0000 0.0000 0.0000 0.0000 0.0000 0.0000 0.0000 0.0000 0.0000 0.0000 0.0000 0.0000 0.0000 0.0000 0.0000 0.0000 0.0000 0.0000 0.0000 0.0000
0.0000 95.0000 0.0000 0.0000 0.0000 0.0000 0.0000 0.0000 0.0000 0.0000 0.0000 0.0000 0.0000 0.0000 0.0000 0.0000 0.0000 0.0000 0.0000 0.0000 0.0000 0.0000 0.0000 0.0000 -76.5084 3.2023 4.0609 -25.2131 3.5602 -4.8075 -18.1188 48.9166 -23.1206 49.7713 -6.3208 20.3998 9.4751 0.0000 0.0000 13.4540 0.0000 0.0000 -5.4521 -0.8735 8.3766 6.5095 0.0000 0.0000 19.9868 0.0000 0.0000 3.3440 -0.0952 -1.5103 148.0727 0.0000 0.0000 19.7086 0.0000 0.0000 15.1052 -0.8643 -3.1252 150.3404 0.0000 0.0000 16.5047 0.0000 0.0000 28.0843 -2.0333 0.2611 139.7384 0.0000 0.0000 24.7503 0.0000 0.0000 0.0000 0.0000 0.0000 89.8437 -22.2581 22.3173 -144.4693 46.5660 -55.3525 -106.8288 -43.2392 103.9366 -65.5937 -13.2554 -5.1702 1.5761 0.0000 0.0000 11.3536 0.0000 0.0000 -11.9234 -7.6218 -23.6634 3.9469 0.0000 0.0000 14.5498 0.0000 0.0000 2.8727 0.0128 4.2630 4.6581 0.0000 0.0000 2.8278 0.0000 0.0000 -8.1058 -0.8074 5.1415 3.0722 0.0000 0.0000 4.6432 0.0000 0.0000 -21.1904 -2.5009 8.3611 8.9528 0.0000 0.0000 1.5912 0.0000 0.0000 0.0000 0.0000 0.0000 0.0000 0.0000 0.0000 0.0000 0.0000 0.0000 0.0000 0.0000 0.0000 0.0000 0.0000 0.0000 0.0000 0.0000 0.0000
0.0000 95.0000 0.0000 0.0000 0.0000 0.0000 0.0000 0.0000 0.0000 0.0000 0.0000 0.0000 0.0000 0.0000 0.0000 0.0000 0.0000 0.0000 0.0000 0.0000 0.0000 0.0000 0.0000 0.0000 -76.3980 7.3085 9.2801 -19.8233 -1.5179 7.0150 -39.6892 58.0116 -52.8883 49.7713 -6.3208 20.3998 9.4751 0.0000 0.0000 13.4540 0.0000 0.0000 -5.4521 -0.8735 8.3766 6.5095 0.0000 0.0000 19.9868 0.0000 0.0000 3.3440 -0.0952 -1.5103 148.0727 0.0000 0.0000 19.7086 0.0000 0.0000 15.1052 -0.8643 -3.1252 150.3404 0.0000 0.0000 16.5047 0.0000 0.0000 28.0843 -2.0333 0.2611 139.7384 0.0000 0.0000 24.7503 0.0000 0.0000 0.0000 0.0000 0.0000 90.0729 -21.8237 21.7966 -146.1029 46.9047 -56.0970 -114.0259 -42.9512 110.1832 -62.9494 -12.9158 -2.5331 4.4262 0.0000 0.0000 22.7609 0.0000 0.0000 -10.5995 -4.1087 -12.8274 5.5603 0.0000 0.0000 14.4938 0.0000 0.0000 2.2191 0.0104 4.2330 4.1703 0.0000 0.0000 3.2876 0.0000 0.0000 -6.3692 -0.8065 5.3454 4.6013 0.0000 0.0000 5.2328 0.0000 0.0000 -20.0819 -2.6782 9.7865 13.0440 0.0000 0.0000 3.2176 0.0000 0.0000 0.0000 0.0000 0.0000 0.0000 0.0000 0.0000 0.0000 0.0000 0.0000 0.0000 0.0000 0.0000 0.0000 0.0000 0.0000 0.0000 0.0000 0.0000
0.0000 95.0000 0.0000 0.0000 0.0000 0.0000 0.0000 0.0000 0.0000 0.0000 0.0000 0.0000 0.0000 0.0000 0.0000 0.0000 0.0000 0.0000 0.0000 0.0000 0.0000 0.0000 0.0000 0.0000 -76.4759 9.4091 11.9242 -16.9264 -2.2097 8.1805 -47.9763 58.0653 -62.7310 49.7713 -6.3208 20.3998 9.4751 0.0000 0.0000 13.4540 0.0000 0.0000 -5.4521 -0.8735 8.3766 6.5095 0.0000 0.0000 19.9868 0.0000 0.0000 3.3440 -0.0952 -1.5103 148.0727 0.0000 0.0000 19.7086 0.0000 0.0000 15.1052 -0.8643 -3.1252 150.3404 0.0000 0.0000 16.5047 0.0000 0.0000 28.0843 -2.0333 0.2611 139.7384 0.0000 0.0000 24.7503 0.0000 0.0000 0.0000 0.0000 0.0000 90.7365 -21.6229 21.3531 -147.9109 46.2678 -56.9527 -109.0035 -42.8186 103.5757 -63.3414 -12.7374 -5.4612 4.2092 0.0000 0.0000 26.1011 0.0000 0.0000 -11.0298 -5.7842 -18.3147 4.1507 0.0000 0.0000 14.8445 0.0000 0.0000 1.0653 0.0166 2.9852 4.4345 0.0000 0.0000 3.1559 0.0000 0.0000 -8.5820 -0.6851 3.1758 3.5974 0.0000 0.0000 5.6874 0.0000 0.0000 -22.4172 -2.3901 7.3052 11.5002 0.0000 0.0000 4.5146 0.0000 0.0000 0.0000 0.0000 0.0000 0.0000 0.0000 0.0000 0.0000 0.0000 0.0000 0.0000 0.0000 0.0000 0.0000 0.0000 0.0000 0.0000 0.0000 0.0000
0.0000 95.0000 0.0000 0.0000 0.0000 0.0000 0.0000 0.0000 0.0000 0.0000 0.0000 0.0000 0.0000 0.0000 0.0000 0.0000 0.0000 0.0000 0.0000 0.0000 0.0000 0.0000 0.0000 0.0000 -75.7428 11.9470 15.3262 -14.5408 -2.5232 8.7956 -56.3153 57.4460 -72.7366 49.7713 -6.3208 20.3998 9.4751 0.0000 0.0000 13.4540 0.0000 0.0000 -5.4521 -0.8735 8.3766 6.5095 0.0000 0.0000 19.9868 0.0000 0.0000 3.3440 -0.0952 -1.5103 148.0727 0.0000 0.0000 19.7086 0.0000 0.0000 15.1052 -0.8643 -3.1252 150.3404 0.0000 0.0000 16.5047 0.0000 0.0000 28.0843 -2.0333 0.2611 139.7384 0.0000 0.0000 24.7503 0.0000 0.0000 0.0000 0.0000 0.0000 90.2095 -22.1689 22.0900 -148.3678 46.8332 -58.1208 -109.6191 -42.8787 103.6765 -63.0213 -12.7711 -4.3016 3.0245 0.0000 0.0000 29.8131 0.0000 0.0000 -11.9838 -6.4114 -19.6745 6.8579 0.0000 0.0000 15.6688 0.0000 0.0000 2.8641 0.0113 4.3193 2.8450 0.0000 0.0000 2.2781 0.0000 0.0000 -8.6417 -0.7385 3.9811 4.2846 0.0000 0.0000 4.6454 0.0000 0.0000 -22.2896 -2.3778 7.1936 10.5544 0.0000 0.0000 3.7877 0.0000 0.0000 0.0000 0.0000 0.0000 0.0000 0.0000 0.0000 0.0000 0.0000 0.0000 0.0000 0.0000 0.0000 0.0000 0.0000 0.0000 0.0000 0.0000 0.0000
0.0000 95.0000 0.0000 0.0000 0.0000 0.0000 0.0000 0.0000 0.0000 0.0000 0.0000 0.0000 0.0000 0.0000 0.0000 0.0000 0.0000 0.0000 0.0000 0.0000 0.0000 0.0000 0.0000 0.0000 -76.1038 12.4180 15.8257 -14.1095 -0.9994 6.2884 -53.3282 57.0255 -68.6731 49.7713 -6.3208 20.3998 9.4751 0.0000 0.0000 13.4540 0.0000 0.0000 -5.4521 -0.8735 8.3766 6.5095 0.0000 0.0000 19.9868 0.0000 0.0000 3.3440 -0.0952 -1.5103 148.0727 0.0000 0.0000 19.7086 0.0000 0.0000 15.1052 -0.8643 -3.1252 150.3404 0.0000 0.0000 16.5047 0.0000 0.0000 28.0843 -2.0333 0.2611 139.7384 0.0000 0.0000 24.7503 0.0000 0.0000 0.0000 0.0000 0.0000 90.3341 -22.2747 22.1484 -148.5459 46.5991 -58.3111 -109.2743 -44.5440 103.9759 -62.8754 -12.8297 -3.3214 3.5992 0.0000 0.0000 35.8797 0.0000 0.0000 -9.0899 -6.0427 -20.8026 1.8522 0.0000 0.0000 17.9785 0.0000 0.0000 2.7365 0.0117 4.2824 3.8734 0.0000 0.0000 2.3949 0.0000 0.0000 -8.2340 -0.7790 4.7030 4.7137 0.0000 0.0000 4.7252 0.0000 0.0000 -21.6306 -2.5615 8.9308 11.0486 0.0000 0.0000 4.2433 0.0000 0.0000 0.0000 0.0000 0.0000 0.0000 0.0000 0.0000 0.0000 0.0000 0.0000 0.0000 0.0000 0.0000 0.0000 0.0000 0.0000 0.0000 0.0000 0.0000
0.0000 95.0000 0.0000 0.0000 0.0000 0.0000 0.0000 0.0000 0.0000 0.0000 0.0000 0.0000 0.0000 0.0000 0.0000 0.0000 0.0000 0.0000 0.0000 0.0000 0.0000 0.0000 0.0000 0.0000 -76.7060 12.1823 15.3617 -13.5949 -0.1126 4.5289 -50.3778 56.2911 -64.4936 49.7713 -6.3208 20.3998 9.4751 0.0000 0.0000 13.4540 0.0000 0.0000 -5.4521 -0.8735 8.3766 6.5095 0.0000 0.0000 19.9868 0.0000 0.0000 3.3440 -0.0952 -1.5103 148.0727 0.0000 0.0000 19.7086 0.0000 0.0000 15.1052 -0.8643 -3.1252 150.3404 0.0000 0.0000 16.5047 0.0000 0.0000 28.0843 -2.0333 0.2611 139.7384 0.0000 0.0000 24.7503 0.0000 0.0000 0.0000 0.0000 0.0000 90.4033 -21.8706 21.7208 -149.1486 46.9180 -58.3577 -108.6658 -43.3455 102.9312 -61.9832 -12.4465 -5.3508 5.4549 0.0000 0.0000 32.8020 0.0000 0.0000 -8.7922 -5.8802 -20.4767 9.4045 0.0000 0.0000 23.9437 0.0000 0.0000 1.5420 0.0413 1.7059 4.4540 0.0000 0.0000 2.6411 0.0000 0.0000 -8.7931 -0.6976 3.2814 4.9517 0.0000 0.0000 4.6847 0.0000 0.0000 -22.1667 -2.4897 8.2794 10.8431 0.0000 0.0000 3.6437 0.0000 0.0000 0.0000 0.0000 0.0000 0.0000 0.0000 0.0000 0.0000 0.0000 0.0000 0.0000 0.0000 0.0000 0.0000 0.0000 0.0000 0.0000 0.0000 0.0000
